HIERARCHY
ROOT Hips
{
	OFFSET 0.000000 0.000000 0.000000
	CHANNELS 6 Xposition Yposition Zposition Xrotation Yrotation Zrotation
	JOINT LeftUpLeg_virtual
	{
		OFFSET 0.000000 0.000000 0.000000
		CHANNELS 3 Xrotation Yrotation Zrotation
		JOINT LeftUpLeg
		{
			OFFSET 11.394100 -6.187798 -0.413800
			CHANNELS 3 Xrotation Yrotation Zrotation
			JOINT LeftLeg
			{
				OFFSET 0.430247 -32.302673 3.732800
				CHANNELS 3 Xrotation Yrotation Zrotation
				JOINT LeftFoot
				{
					OFFSET -0.430247 -48.264931 -6.423300
					CHANNELS 3 Xrotation Yrotation Zrotation
					JOINT LeftToeBase
					{
						OFFSET 4.230900 -16.068199 23.438400
						CHANNELS 3 Xrotation Yrotation Zrotation
						JOINT LeftToe_End
						{
							OFFSET 4.510700 0.695400 19.974600
							CHANNELS 3 Xrotation Yrotation Zrotation
							End Site
							{
								OFFSET 0 0 0
							}
						}
					}
				}
			}
		}
	}
	JOINT RightUpLeg_virtual
	{
		OFFSET 0.000000 0.000000 0.000000
		CHANNELS 3 Xrotation Yrotation Zrotation
		JOINT RightUpLeg
		{
			OFFSET -11.333700 -6.187798 -0.413800
			CHANNELS 3 Xrotation Yrotation Zrotation
			JOINT RightLeg
			{
				OFFSET -0.430392 -32.302628 3.733000
				CHANNELS 3 Xrotation Yrotation Zrotation
				JOINT RightFoot
				{
					OFFSET 0.430392 -48.264973 -6.423500
					CHANNELS 3 Xrotation Yrotation Zrotation
					JOINT RightToeBase
					{
						OFFSET -4.230900 -16.068199 23.438400
						CHANNELS 3 Xrotation Yrotation Zrotation
						JOINT RightToe_End
						{
							OFFSET -4.510700 0.695400 19.974600
							CHANNELS 3 Xrotation Yrotation Zrotation
							End Site
							{
								OFFSET 0 0 0
							}
						}
					}
				}
			}
		}
	}
	JOINT Spine_virtual
	{
		OFFSET 0.000000 0.000000 0.000000
		CHANNELS 3 Xrotation Yrotation Zrotation
		JOINT Spine
		{
			OFFSET -0.002400 12.777504 0.315300
			CHANNELS 3 Xrotation Yrotation Zrotation
			JOINT Spine1
			{
				OFFSET -0.002067 5.816869 0.032633
				CHANNELS 3 Xrotation Yrotation Zrotation
				JOINT Spine1_split
				{
					OFFSET -0.002067 5.816869 0.032633
					CHANNELS 3 Xrotation Yrotation Zrotation
					JOINT Spine2
					{
						OFFSET -0.002067 5.816869 0.032633
						CHANNELS 3 Xrotation Yrotation Zrotation
						JOINT Neck_virtual
						{
							OFFSET 0.000000 0.000000 0.000000
							CHANNELS 3 Xrotation Yrotation Zrotation
							JOINT Neck
							{
								OFFSET -0.003700 21.199493 -0.826900
								CHANNELS 3 Xrotation Yrotation Zrotation
								JOINT Head
								{
									OFFSET 0.000000 20.442200 4.834800
									CHANNELS 3 Xrotation Yrotation Zrotation
									JOINT HeadTop_End
									{
										OFFSET 0.000000 34.668396 4.968400
										CHANNELS 3 Xrotation Yrotation Zrotation
										End Site
										{
											OFFSET 0 0 0
										}
									}
								}
							}
						}
						JOINT LeftShoulder_virtual
						{
							OFFSET 0.000000 0.000000 0.000000
							CHANNELS 3 Xrotation Yrotation Zrotation
							JOINT LeftShoulder
							{
								OFFSET 3.288150 8.794197 -1.372250
								CHANNELS 3 Xrotation Yrotation Zrotation
								JOINT LeftShoulder_split
								{
									OFFSET 3.288150 8.794197 -1.372250
									CHANNELS 3 Xrotation Yrotation Zrotation
									JOINT LeftArm
									{
										OFFSET 11.953299 -2.279007 -0.146200
										CHANNELS 3 Xrotation Yrotation Zrotation
										JOINT LeftForeArm
										{
											OFFSET 18.448900 0.000000 0.000000
											CHANNELS 3 Xrotation Yrotation Zrotation
											JOINT LeftHand
											{
												OFFSET 29.527798 0.000000 0.000000
												CHANNELS 3 Xrotation Yrotation Zrotation
												End Site
												{
													OFFSET 0 0 0
												}
											}
										}
									}
								}
							}
						}
						JOINT RightShoulder_virtual
						{
							OFFSET 0.000000 0.000000 0.000000
							CHANNELS 3 Xrotation Yrotation Zrotation
							JOINT RightShoulder
							{
								OFFSET -3.249400 8.794197 -1.372250
								CHANNELS 3 Xrotation Yrotation Zrotation
								JOINT RightShoulder_split
								{
									OFFSET -3.249400 8.794197 -1.372250
									CHANNELS 3 Xrotation Yrotation Zrotation
									JOINT RightArm
									{
										OFFSET -11.953299 -2.279007 -0.146200
										CHANNELS 3 Xrotation Yrotation Zrotation
										JOINT RightForeArm
										{
											OFFSET -18.448900 0.000000 0.000000
											CHANNELS 3 Xrotation Yrotation Zrotation
											JOINT RightHand
											{
												OFFSET -29.527802 0.000000 0.000000
												CHANNELS 3 Xrotation Yrotation Zrotation
												End Site
												{
													OFFSET 0 0 0
												}
											}
										}
									}
								}
							}
						}
					}
				}
			}
		}
	}
}
MOTION
Frames: 6
Frame Time: 0.03333333
68.244690 99.715149 42.879509 0.000000 0.000000 0.000000 4.941351 69.248460 -4.711367 -24.640514 -10.126736 0.933355 19.624785 -0.232425 -8.553285 4.281384 -18.906495 5.877181 0.069385 -2.860563 -0.863380 0.000000 0.000000 0.000000 4.941351 69.248460 -4.711367 -4.209818 -13.131057 -0.798390 38.373502 -3.952637 -3.424216 -3.698198 -13.634956 12.436291 -28.408577 -0.822715 1.791003 0.000000 0.000000 0.000000 4.941351 69.248460 -4.711367 1.601911 16.220690 -2.401754 0.267653 12.712490 -1.770096 0.000000 0.000000 0.000000 0.000000 0.000000 0.000000 0.303316 12.613138 -2.378698 31.151707 -16.920153 8.990539 -37.861163 -70.544530 -3.831478 0.000000 0.000000 0.000000 0.303316 12.613138 -2.378698 -2.077718 -8.797576 -14.650052 0.000000 0.000000 0.000000 25.493715 -51.832185 -33.182039 0.000089 -68.776535 0.000098 0.000000 0.000000 0.000000 0.303316 12.613138 -2.378698 -8.376127 33.670353 20.651458 0.000000 0.000000 0.000000 6.514651 31.976272 48.490675 -0.000001 48.553356 0.000018 0.000000 0.000000 0.000000 
67.611404 99.651588 42.461388 0.000000 0.000000 0.000000 4.318528 67.242038 -4.087642 -24.846053 -10.144551 1.231350 19.899159 1.382601 -8.532720 4.332531 -18.613801 5.628016 0.069551 -2.860522 -0.863370 0.000000 0.000000 0.000000 4.318528 67.242038 -4.087642 -3.679807 -12.481768 -1.472757 36.926612 -5.649786 -3.591448 -7.104738 -15.666618 9.897882 -20.083495 -1.585175 5.476984 0.000000 0.000000 0.000000 4.318528 67.242038 -4.087642 1.575051 15.381607 -2.105968 0.343534 12.111571 -1.597175 0.000000 0.000000 0.000000 0.000000 0.000000 0.000000 0.355242 12.030040 -2.142364 30.067722 -16.587201 7.620746 -36.544442 -68.821847 -2.824782 0.000000 0.000000 0.000000 0.355242 12.030040 -2.142364 -1.967089 -8.442205 -14.580909 0.000000 0.000000 0.000000 23.731685 -53.081689 -34.699325 0.000007 -66.037336 -0.000001 0.000000 0.000000 0.000000 0.355242 12.030040 -2.142364 -8.428599 32.859050 21.486424 0.000000 0.000000 0.000000 5.768029 31.090943 48.692029 -0.000008 48.134409 -0.000003 0.000000 0.000000 0.000000 
66.833183 99.689110 42.104866 0.000000 0.000000 0.000000 3.838269 64.764141 -3.677281 -24.772174 -9.796608 1.947665 19.781234 3.171287 -8.501916 4.518363 -18.485787 5.288141 0.069720 -2.860515 -0.863365 0.000000 0.000000 0.000000 3.838269 64.764141 -3.677281 -1.308826 -11.222096 -1.325548 33.096450 -2.658423 -3.842239 -9.753553 -25.519967 6.673482 -10.839475 -1.143903 9.611379 0.000000 0.000000 0.000000 3.838269 64.764141 -3.677281 1.518385 14.686312 -1.926234 0.371862 11.541077 -1.378603 0.000000 0.000000 0.000000 0.000000 0.000000 0.000000 0.372755 11.478281 -1.856315 28.899309 -16.213870 6.271608 -35.170676 -67.009634 -1.806515 0.000000 0.000000 0.000000 0.372755 11.478281 -1.856315 -1.822197 -8.117080 -14.348525 0.000000 0.000000 0.000000 21.935731 -54.672164 -36.106562 0.000033 -62.965089 0.000040 0.000000 0.000000 0.000000 0.372755 11.478281 -1.856315 -8.552613 31.896891 22.612287 0.000000 0.000000 0.000000 5.447656 30.142506 48.410851 -0.000019 48.027629 0.000009 0.000000 0.000000 0.000000 
65.991173 99.752396 41.772533 0.000000 0.000000 0.000000 3.508519 62.095094 -3.017215 -24.442090 -9.567481 2.383381 19.171808 5.395248 -8.478798 4.879984 -18.312133 4.873561 0.069884 -2.860495 -0.863356 0.000000 0.000000 0.000000 3.508519 62.095094 -3.017215 0.392606 -13.512596 -0.841654 28.997237 -1.135007 -5.498911 -11.895592 -30.691680 3.584907 -8.100356 -0.276456 6.402350 0.000000 0.000000 0.000000 3.508519 62.095094 -3.017215 1.520402 14.137243 -2.234352 0.373124 11.056590 -1.378681 0.000000 0.000000 0.000000 0.000000 0.000000 0.000000 0.360282 11.001743 -1.801466 27.805505 -15.757844 5.758843 -34.237317 -64.938761 -1.557324 0.000000 0.000000 0.000000 0.360282 11.001743 -1.801466 -1.707228 -7.830355 -14.234793 0.000000 0.000000 0.000000 20.800334 -56.184446 -36.603633 -0.000026 -60.431280 -0.000030 0.000000 0.000000 0.000000 0.360282 11.001743 -1.801466 -8.647023 30.837778 23.797755 0.000000 0.000000 0.000000 5.562966 29.024124 47.757454 -0.000012 48.635281 0.000022 0.000000 0.000000 0.000000 
65.157661 99.793488 41.551453 0.000000 0.000000 0.000000 3.049393 59.117582 -2.560253 -24.267780 -8.764258 3.061859 18.893831 5.420355 -8.118151 4.868541 -16.345633 4.216860 0.070062 -2.860479 -0.863347 0.000000 0.000000 0.000000 3.049393 59.117582 -2.560253 1.561895 -14.708882 -0.065937 25.223875 -2.711285 -6.906975 -12.482622 -30.720767 3.337507 -7.321783 -0.052417 2.789716 0.000000 0.000000 0.000000 3.049393 59.117582 -2.560253 1.557834 13.672100 -2.163741 0.473699 10.558939 -1.338844 0.000000 0.000000 0.000000 0.000000 0.000000 0.000000 0.448891 10.511839 -1.703655 25.544858 -15.119573 4.115344 -31.203829 -62.995607 0.076847 0.000000 0.000000 0.000000 0.448891 10.511839 -1.703655 -1.740806 -7.637740 -14.657103 0.000000 0.000000 0.000000 20.361284 -56.245740 -36.459768 0.000053 -59.980645 0.000059 0.000000 0.000000 0.000000 0.448891 10.511839 -1.703655 -8.518743 29.854781 24.506809 0.000000 0.000000 0.000000 6.262299 28.296253 46.431988 0.000006 50.767843 -0.000008 0.000000 0.000000 0.000000 
64.341820 99.409584 41.372952 0.000000 0.000000 0.000000 2.823502 56.144401 -2.407023 -25.630862 -7.671017 3.540172 20.949835 5.335505 -7.337880 3.951562 -14.784790 3.309089 0.070238 -2.860436 -0.863338 0.000000 0.000000 0.000000 2.823502 56.144401 -2.407023 1.742858 -14.585138 0.116683 23.643866 -2.397729 -7.459755 -13.375407 -30.854174 4.171208 -6.443545 -0.008320 1.116037 0.000000 0.000000 0.000000 2.823502 56.144401 -2.407023 1.831609 12.879508 -1.896068 0.805187 9.572527 -1.160786 0.000000 0.000000 0.000000 0.000000 0.000000 0.000000 0.763336 9.542954 -1.416159 19.419584 -13.964230 0.017151 -24.003236 -60.691135 3.453335 0.000000 0.000000 0.000000 0.763336 9.542954 -1.416159 -1.968496 -7.572968 -15.692872 0.000000 0.000000 0.000000 19.948739 -54.084395 -36.717021 0.000060 -62.208379 0.000065 0.000000 0.000000 0.000000 0.763336 9.542954 -1.416159 -8.124823 29.038706 24.523931 0.000000 0.000000 0.000000 7.747110 28.375579 44.150575 0.000013 54.846460 -0.000009 0.000000 0.000000 0.000000 
